# Blender v2.78 (sub 0) OBJ File: 'TVDesk.blend'
# www.blender.org
mtllib TVDesk.mtl
o Cylinder_Cylinder.001
v 2.225231 -1.369986 0.278711
v 2.225231 -2.369986 0.278711
v 2.225231 -1.369986 3.278711
v 2.225231 -2.369986 3.278711
v 1.225231 -1.369986 0.278711
v 1.225231 -2.369986 0.278711
v 1.225231 -1.369986 3.278711
v 1.225231 -2.369986 3.278711
v 1.400297 -2.362203 0.407171
v 1.367695 -2.576064 0.393932
v 1.400297 -2.362203 0.491388
v 1.367695 -2.576064 0.458978
v 1.316079 -2.362203 0.407171
v 1.302650 -2.576064 0.393932
v 1.316079 -2.362203 0.491388
v 1.302650 -2.576064 0.458978
v 2.087321 -2.579121 0.458148
v 2.054910 -2.365259 0.490750
v 2.152366 -2.579121 0.458148
v 2.139127 -2.365259 0.490750
v 2.087321 -2.579121 0.393102
v 2.054910 -2.365259 0.406532
v 2.152366 -2.579121 0.393102
v 2.139128 -2.365259 0.406532
v 2.054815 -2.362203 3.142769
v 2.087417 -2.576064 3.156008
v 2.054815 -2.362203 3.058551
v 2.087417 -2.576064 3.090962
v 2.139033 -2.362203 3.142769
v 2.152462 -2.576064 3.156008
v 2.139033 -2.362203 3.058551
v 2.152462 -2.576064 3.090962
v 1.367791 -2.579121 3.091792
v 1.400202 -2.365259 3.059190
v 1.302745 -2.579121 3.091792
v 1.315984 -2.365259 3.059190
v 1.367791 -2.579121 3.156838
v 1.400202 -2.365259 3.143408
v 1.302745 -2.579121 3.156838
v 1.315984 -2.365259 3.143408
vt 0.7429 0.4999
vt 0.7429 0.6664
vt 0.0024 0.6664
vt 0.0024 0.4999
vt 0.7429 0.0001
vt 0.7429 0.1667
vt 0.0024 0.1667
vt 0.0024 0.0001
vt 0.9830 0.6704
vt 0.9811 1.0036
vt 0.7494 1.0022
vt 0.7513 0.6691
vt 0.9835 0.6683
vt 0.9821 1.0014
vt 0.7504 1.0009
vt 0.7518 0.6678
vt 0.7409 0.6675
vt 0.7407 1.0006
vt 0.0002 1.0003
vt 0.0004 0.6671
vt 0.8927 0.1933
vt 0.8940 0.1380
vt 0.9067 0.1392
vt 0.8935 0.2892
vt 0.8576 0.1430
vt 0.8700 0.1398
vt 0.8797 0.1943
vt 0.8819 0.1380
vt 0.8858 0.1886
vt 0.8083 0.6366
vt 0.8083 0.6258
vt 0.8191 0.6258
vt 0.8191 0.6366
vt 0.8434 0.3448
vt 0.8447 0.2895
vt 0.8574 0.2907
vt 0.8442 0.4407
vt 0.8083 0.6144
vt 0.8083 0.6036
vt 0.8191 0.6036
vt 0.8191 0.6144
vt 0.8304 0.3458
vt 0.8365 0.3401
vt 0.8326 0.2895
vt 0.8206 0.2913
vt 0.8083 0.2945
vt 0.8434 0.4963
vt 0.8447 0.4409
vt 0.8574 0.4422
vt 0.8442 0.5921
vt 0.8083 0.4460
vt 0.8206 0.4428
vt 0.8304 0.4973
vt 0.8326 0.4409
vt 0.8365 0.4916
vt 0.8191 0.5924
vt 0.8191 0.6033
vt 0.8083 0.6033
vt 0.8083 0.5924
vt 0.8434 0.1933
vt 0.8447 0.1380
vt 0.8574 0.1392
vt 0.8442 0.2892
vt 0.8191 0.6147
vt 0.8191 0.6255
vt 0.8083 0.6255
vt 0.8083 0.6147
vt 0.8304 0.1943
vt 0.8365 0.1886
vt 0.8326 0.1380
vt 0.8206 0.1398
vt 0.8083 0.1430
vn 0.0000 1.0000 0.0000
vn 0.0000 -1.0000 0.0000
vn 0.0000 0.0000 1.0000
vn 1.0000 0.0000 0.0000
vn 0.0000 0.0000 -1.0000
vn -1.0000 0.0000 0.0000
vn -0.9886 0.1507 0.0000
vn 0.0000 0.1498 -0.9887
vn 0.9980 -0.0627 0.0000
vn 0.0000 -0.0618 0.9981
vn 0.0000 0.1507 -0.9886
vn -0.9981 -0.0618 -0.0000
vn 0.0000 -0.0627 0.9980
vn 0.9887 0.1498 0.0000
vn 0.9886 0.1507 0.0000
vn 0.0000 0.1498 0.9887
vn -0.9980 -0.0627 0.0000
vn 0.0000 -0.0618 -0.9981
vn 0.0000 0.1507 0.9886
vn 0.9981 -0.0618 0.0000
vn 0.0000 -0.0627 -0.9980
vn -0.9887 0.1498 0.0000
usemtl Material.003
s off
f 1/1/1 5/2/1 7/3/1 3/4/1
f 6/5/2 2/6/2 4/7/2 8/8/2
f 4/9/3 3/10/3 7/11/3 8/12/3
f 2/6/4 1/1/4 3/4/4 4/7/4
f 6/13/5 5/14/5 1/15/5 2/16/5
f 8/17/6 7/18/6 5/19/6 6/20/6
f 9/21/7 10/22/7 12/23/7 11/24/7
f 11/24/8 12/25/8 16/26/8 15/27/8
f 15/27/9 16/26/9 14/28/9 13/29/9
f 13/29/10 14/28/10 10/22/10 9/21/10
f 11/24/2 15/27/2 13/29/2 9/21/2
f 16/30/1 12/31/1 10/32/1 14/33/1
f 20/34/11 19/35/11 17/36/11 18/37/11
f 21/38/1 17/39/1 19/40/1 23/41/1
f 18/37/2 22/42/2 24/43/2 20/34/2
f 24/43/12 23/44/12 19/35/12 20/34/12
f 22/42/13 21/45/13 23/44/13 24/43/13
f 18/37/14 17/46/14 21/45/14 22/42/14
f 25/47/15 26/48/15 28/49/15 27/50/15
f 27/50/16 28/51/16 32/52/16 31/53/16
f 31/53/17 32/52/17 30/54/17 29/55/17
f 29/55/18 30/54/18 26/48/18 25/47/18
f 27/50/2 31/53/2 29/55/2 25/47/2
f 32/56/1 28/57/1 26/58/1 30/59/1
f 36/60/19 35/61/19 33/62/19 34/63/19
f 37/64/1 33/65/1 35/66/1 39/67/1
f 34/63/2 38/68/2 40/69/2 36/60/2
f 40/69/20 39/70/20 35/61/20 36/60/20
f 38/68/21 37/71/21 39/70/21 40/69/21
f 34/63/22 33/72/22 37/71/22 38/68/22
