# Blender v2.78 (sub 0) OBJ File: 'BigLight.blend'
# www.blender.org
mtllib BigLight.mtl
o Cone
v 0.028612 1.991345 0.213587
v -0.188330 1.991345 0.263103
v -0.362304 1.991345 0.401842
v -0.458852 1.991345 0.602327
v -0.458852 1.991345 0.824848
v 0.028612 1.741345 0.713587
v -0.362304 1.991345 1.025332
v -0.188330 1.991345 1.164071
v 0.028612 1.991345 1.213587
v 0.245554 1.991345 1.164072
v 0.419528 1.991345 1.025332
v 0.516076 1.991345 0.824848
v 0.516076 1.991345 0.602327
v 0.419528 1.991345 0.401842
v 0.245554 1.991345 0.263103
v 0.028612 -1.312172 0.213587
v 0.245554 -1.312172 0.263103
v 0.419528 -1.312172 0.401842
v 0.516076 -1.312172 0.602327
v 0.516076 -1.312172 0.824847
v 0.419528 -1.312172 1.025332
v 0.245554 -1.312172 1.164071
v 0.028612 -1.312172 1.213587
v -0.188330 -1.312172 1.164071
v -0.362304 -1.312172 1.025332
v -0.458852 -1.312172 0.824847
v -0.458852 -1.312172 0.602326
v 0.028612 -1.112172 0.713587
v -0.362304 -1.312172 0.401842
v -0.188330 -1.312172 0.263102
v 0.028612 -1.224422 0.663587
v 0.028612 1.775578 0.663587
v 0.063967 -1.224422 0.678232
v 0.063967 1.775578 0.678232
v 0.078612 -1.224422 0.713587
v 0.078612 1.775578 0.713587
v 0.063967 -1.224422 0.748942
v 0.063967 1.775578 0.748942
v 0.028612 -1.224422 0.763587
v 0.028612 1.775578 0.763587
v -0.006743 -1.224422 0.748942
v -0.006743 1.775578 0.748942
v -0.021388 -1.224422 0.713587
v -0.021388 1.775578 0.713587
v -0.006743 -1.224422 0.678232
v -0.006743 1.775578 0.678232
v 0.028612 2.000289 0.218059
v -0.186389 2.000289 0.267132
v -0.358807 2.000289 0.404630
v -0.454492 2.000289 0.603322
v -0.454492 2.000289 0.823853
v 0.028612 1.751345 0.713587
v -0.358807 2.000289 1.022544
v -0.186389 2.000289 1.160042
v 0.028612 2.000289 1.209115
v 0.243613 2.000289 1.160042
v 0.416032 2.000289 1.022544
v 0.511716 2.000289 0.823853
v 0.511716 2.000289 0.603321
v 0.416032 2.000289 0.404630
v 0.243613 2.000289 0.267132
v 0.028612 -1.310497 0.223445
v 0.241276 -1.310497 0.271985
v 0.411820 -1.310497 0.407989
v 0.506464 -1.310497 0.604520
v 0.506464 -1.310497 0.822654
v 0.411820 -1.310497 1.019185
v 0.241276 -1.310497 1.155189
v 0.028612 -1.310497 1.203729
v -0.184052 -1.310497 1.155189
v -0.354596 -1.310497 1.019185
v -0.449240 -1.310497 0.822654
v -0.449240 -1.310497 0.604520
v 0.028612 -1.122171 0.713587
v -0.354596 -1.310497 0.407989
v -0.184052 -1.310497 0.271985
v 0.028612 -1.218119 0.671351
v 0.028612 1.769276 0.671351
v 0.058478 -1.218119 0.683721
v 0.058478 1.769276 0.683721
v 0.070848 -1.218119 0.713587
v 0.070848 1.769276 0.713587
v 0.058478 -1.218119 0.743453
v 0.058478 1.769276 0.743453
v 0.028612 -1.218119 0.755823
v 0.028612 1.769276 0.755823
v -0.001254 -1.218119 0.743453
v -0.001254 1.769276 0.743453
v -0.013624 -1.218119 0.713587
v -0.013624 1.769276 0.713587
v -0.001254 -1.218119 0.683721
v -0.001254 1.769276 0.683721
vn 0.0000 -0.2897 -0.9571
vn 0.0000 -1.0000 0.0000
vn -0.4153 -0.2897 -0.8623
vn -0.7483 -0.2897 -0.5967
vn -0.9331 -0.2897 -0.2130
vn -0.9331 -0.2897 0.2130
vn -0.7483 -0.2897 0.5967
vn -0.4153 -0.2897 0.8623
vn 0.0000 -0.2897 0.9571
vn 0.4153 -0.2897 0.8623
vn 0.7483 -0.2897 0.5967
vn 0.9331 -0.2897 0.2130
vn 0.9331 -0.2897 -0.2130
vn 0.7483 -0.2897 -0.5967
vn 0.4153 -0.2897 -0.8623
vn 0.0000 -0.1675 -0.9858
vn 0.0000 1.0000 0.0000
vn 0.4277 -0.1675 -0.8882
vn 0.7708 -0.1675 -0.6147
vn 0.9611 -0.1675 -0.2194
vn 0.9611 -0.1675 0.2194
vn 0.7708 -0.1675 0.6147
vn 0.4277 -0.1675 0.8882
vn 0.0000 -0.1675 0.9858
vn -0.4277 -0.1675 0.8882
vn -0.7708 -0.1675 0.6147
vn -0.9611 -0.1675 0.2194
vn -0.9611 -0.1675 -0.2194
vn -0.7708 -0.1675 -0.6147
vn -0.4277 -0.1675 -0.8882
vn 0.0000 -0.6302 -0.7764
vn 0.0000 0.6302 -0.7764
vn 0.5490 0.6302 -0.5490
vn 0.5490 -0.6302 -0.5490
vn 0.7764 0.6302 0.0000
vn 0.7764 -0.6302 0.0000
vn 0.5490 0.6302 0.5490
vn 0.5490 -0.6302 0.5490
vn 0.0000 0.6302 0.7764
vn 0.0000 -0.6302 0.7764
vn -0.5490 0.6302 0.5490
vn -0.5490 -0.6302 0.5490
vn -0.7764 0.6302 0.0000
vn -0.7764 -0.6302 0.0000
vn -0.5490 0.6302 -0.5490
vn -0.5490 -0.6302 -0.5490
vn 0.0000 0.9164 -0.4003
vn -0.1737 0.9164 -0.3606
vn -0.3129 0.9164 -0.2495
vn -0.3902 0.9164 -0.0891
vn -0.3902 0.9164 0.0891
vn -0.3129 0.9164 0.2495
vn -0.1737 0.9164 0.3606
vn 0.0000 0.9164 0.4003
vn 0.1737 0.9164 0.3606
vn 0.3129 0.9164 0.2495
vn 0.3902 0.9164 0.0891
vn 0.3902 0.9164 -0.0891
vn 0.3129 0.9164 -0.2495
vn 0.1737 0.9164 -0.3606
vn 0.0000 0.1615 0.9868
vn -0.4282 0.1615 0.8891
vn -0.7715 0.1615 0.6153
vn -0.9621 0.1615 0.2196
vn -0.9621 0.1615 -0.2196
vn -0.7715 0.1615 -0.6153
vn -0.4282 0.1615 -0.8891
vn 0.0000 0.1615 -0.9868
vn 0.4282 0.1615 -0.8891
vn 0.7715 0.1615 -0.6153
vn 0.9621 0.1615 -0.2196
vn 0.9621 0.1615 0.2196
vn 0.7715 0.1615 0.6153
vn 0.4282 0.1615 0.8891
usemtl Material.001
s 1
f 1//1 6//2 2//3
f 2//3 6//2 3//4
f 3//4 6//2 4//5
f 4//5 6//2 5//6
f 5//6 6//2 7//7
f 7//7 6//2 8//8
f 8//8 6//2 9//9
f 9//9 6//2 10//10
f 10//10 6//2 11//11
f 11//11 6//2 12//12
f 12//12 6//2 13//13
f 13//13 6//2 14//14
f 14//14 6//2 15//15
f 15//15 6//2 1//1
f 16//16 28//17 17//18
f 17//18 28//17 18//19
f 18//19 28//17 19//20
f 19//20 28//17 20//21
f 20//21 28//17 21//22
f 21//22 28//17 22//23
f 22//23 28//17 23//24
f 23//24 28//17 24//25
f 24//25 28//17 25//26
f 25//26 28//17 26//27
f 26//27 28//17 27//28
f 27//28 28//17 29//29
f 29//29 28//17 30//30
f 30//30 28//17 16//16
f 16//16 17//18 18//19 19//20 20//21 21//22 22//23 23//24 24//25 25//26 26//27 27//28 29//29 30//30
f 31//31 32//32 34//33 33//34
f 33//34 34//33 36//35 35//36
f 35//36 36//35 38//37 37//38
f 37//38 38//37 40//39 39//40
f 39//40 40//39 42//41 41//42
f 41//42 42//41 44//43 43//44
f 34//33 32//32 46//45 44//43 42//41 40//39 38//37 36//35
f 43//44 44//43 46//45 45//46
f 45//46 46//45 32//32 31//31
f 31//31 33//34 35//36 37//38 39//40 41//42 43//44 45//46
f 47//47 48//48 52//17
f 48//48 49//49 52//17
f 49//49 50//50 52//17
f 50//50 51//51 52//17
f 51//51 53//52 52//17
f 53//52 54//53 52//17
f 54//53 55//54 52//17
f 55//54 56//55 52//17
f 56//55 57//56 52//17
f 57//56 58//57 52//17
f 58//57 59//58 52//17
f 59//58 60//59 52//17
f 60//59 61//60 52//17
f 61//60 47//47 52//17
f 62//61 63//62 74//2
f 63//62 64//63 74//2
f 64//63 65//64 74//2
f 65//64 66//65 74//2
f 66//65 67//66 74//2
f 67//66 68//67 74//2
f 68//67 69//68 74//2
f 69//68 70//69 74//2
f 70//69 71//70 74//2
f 71//70 72//71 74//2
f 72//71 73//72 74//2
f 73//72 75//73 74//2
f 75//73 76//74 74//2
f 76//74 62//61 74//2
f 62//61 76//74 75//73 73//72 72//71 71//70 70//69 69//68 68//67 67//66 66//65 65//64 64//63 63//62
f 77//39 79//41 80//42 78//40
f 79//41 81//43 82//44 80//42
f 81//43 83//45 84//46 82//44
f 83//45 85//32 86//31 84//46
f 85//32 87//33 88//34 86//31
f 87//33 89//35 90//36 88//34
f 80//42 82//44 84//46 86//31 88//34 90//36 92//38 78//40
f 89//35 91//37 92//38 90//36
f 91//37 77//39 78//40 92//38
f 77//39 91//37 89//35 87//33 85//32 83//45 81//43 79//41
f 1//1 2//3 48//48 47//47
f 2//3 3//4 49//49 48//48
f 3//4 4//5 50//50 49//49
f 4//5 5//6 51//51 50//50
f 5//6 7//7 53//52 51//51
f 7//7 8//8 54//53 53//52
f 8//8 9//9 55//54 54//53
f 9//9 10//10 56//55 55//54
f 10//10 11//11 57//56 56//55
f 11//11 12//12 58//57 57//56
f 12//12 13//13 59//58 58//57
f 13//13 14//14 60//59 59//58
f 14//14 15//15 61//60 60//59
f 15//15 1//1 47//47 61//60
