# Blender v2.78 (sub 0) OBJ File: 'Screen.blend'
# www.blender.org
mtllib Screen.mtl
o Cube_Cube.007
v 0.250846 1.718876 0.570481
v 0.250846 1.718876 0.670481
v -0.581135 1.718876 0.570481
v -0.581135 1.718876 0.670481
v 0.250846 1.212044 0.670481
v 0.250846 1.212044 0.570481
v -0.581135 1.212044 0.570481
v -0.581135 1.212044 0.670481
v -0.665145 1.128035 0.670481
v -0.665145 1.802886 0.670481
v 0.334855 1.802886 0.670481
v 0.334855 1.128035 0.670481
v 0.334855 1.802886 0.570481
v 0.334855 1.128035 0.570481
v -0.665145 1.802886 0.570481
v -0.665145 1.128035 0.570481
v 0.250846 1.046982 0.570481
v 0.250846 1.046982 0.670481
v -0.581135 1.046982 0.570481
v -0.581135 1.046982 0.670481
v 0.250846 0.540150 0.670481
v 0.250846 0.540150 0.570481
v -0.581135 0.540150 0.570481
v -0.581135 0.540150 0.670481
v -0.665145 0.456140 0.670481
v -0.665145 1.130991 0.670481
v 0.334855 1.130991 0.670481
v 0.334855 0.456140 0.670481
v 0.334855 1.130991 0.570481
v 0.334855 0.456140 0.570481
v -0.665145 1.130991 0.570481
v -0.665145 0.456140 0.570481
v 0.250846 0.372553 0.570481
v 0.250846 0.372553 0.670481
v -0.581135 0.372553 0.570481
v -0.581135 0.372553 0.670481
v 0.250846 -0.134280 0.670481
v 0.250846 -0.134280 0.570481
v -0.581135 -0.134280 0.570481
v -0.581135 -0.134280 0.670481
v -0.665145 -0.218289 0.670481
v -0.665145 0.456562 0.670481
v 0.334855 0.456562 0.670481
v 0.334855 -0.218289 0.670481
v 0.334855 0.456562 0.570481
v 0.334855 -0.218289 0.570481
v -0.665145 0.456562 0.570481
v -0.665145 -0.218289 0.570481
v -0.610117 -0.163262 0.623937
v 0.289882 -0.163262 0.623937
v -0.610117 1.736738 0.623937
v 0.289882 1.736738 0.623937
vt 0.6634 0.0195
vt 0.6634 0.4995
vt 0.6154 0.4995
vt 0.6154 0.0195
vt 0.7471 0.0960
vt 0.7471 0.4199
vt 0.6991 0.4199
vt 0.6991 0.0960
vt 0.6991 0.4214
vt 0.6991 0.0975
vt 0.7471 0.0975
vt 0.7471 0.4214
vt 0.6154 0.4991
vt 0.6154 0.0191
vt 0.6634 0.0191
vt 0.6634 0.4991
vt 0.3891 0.0594
vt 0.1459 0.0594
vt 0.1055 0.0191
vt 0.4294 0.0191
vt 0.1459 0.4588
vt 0.1056 0.4991
vt 0.3892 0.4587
vt 0.4295 0.4991
vt 0.1456 0.4588
vt 0.3889 0.4587
vt 0.4292 0.4991
vt 0.1053 0.4991
vt 0.3888 0.0594
vt 0.4291 0.0191
vt 0.1456 0.0594
vt 0.1052 0.0191
vt 0.5423 0.2627
vt 0.5423 0.0195
vt 0.5903 0.0195
vt 0.5903 0.2627
vt 0.4617 0.0457
vt 0.5097 0.0457
vt 0.5097 0.4450
vt 0.4617 0.4450
vt 0.5423 0.0191
vt 0.5903 0.0191
vt 0.5903 0.2624
vt 0.5423 0.2624
vt 0.4617 0.4447
vt 0.4617 0.0454
vt 0.5097 0.0454
vt 0.5097 0.4447
vt 0.6634 0.0191
vt 0.6634 0.4991
vt 0.6154 0.4991
vt 0.6154 0.0191
vt 0.7471 0.0960
vt 0.7471 0.4199
vt 0.6991 0.4199
vt 0.6991 0.0960
vt 0.6991 0.4214
vt 0.6991 0.0975
vt 0.7471 0.0975
vt 0.7471 0.4214
vt 0.6154 0.4991
vt 0.6154 0.0191
vt 0.6634 0.0191
vt 0.6634 0.4991
vt 0.3891 0.0594
vt 0.1459 0.0594
vt 0.1055 0.0191
vt 0.4294 0.0191
vt 0.1459 0.4588
vt 0.1056 0.4991
vt 0.3892 0.4587
vt 0.4295 0.4991
vt 0.1456 0.4588
vt 0.3889 0.4587
vt 0.4292 0.4991
vt 0.1053 0.4991
vt 0.3888 0.0594
vt 0.4291 0.0191
vt 0.1456 0.0594
vt 0.1052 0.0191
vt 0.5423 0.2627
vt 0.5423 0.0195
vt 0.5903 0.0195
vt 0.5903 0.2627
vt 0.4617 0.0457
vt 0.5097 0.0457
vt 0.5097 0.4450
vt 0.4617 0.4450
vt 0.5423 0.0191
vt 0.5903 0.0191
vt 0.5903 0.2624
vt 0.5423 0.2624
vt 0.4617 0.4447
vt 0.4617 0.0454
vt 0.5097 0.0454
vt 0.5097 0.4447
vt 0.6634 0.0206
vt 0.6634 0.5005
vt 0.6154 0.5005
vt 0.6154 0.0206
vt 0.7471 0.0960
vt 0.7471 0.4199
vt 0.6991 0.4199
vt 0.6991 0.0960
vt 0.6991 0.4214
vt 0.6991 0.0975
vt 0.7471 0.0975
vt 0.7471 0.4214
vt 0.6154 0.4991
vt 0.6154 0.0191
vt 0.6634 0.0191
vt 0.6634 0.4991
vt 0.3891 0.0594
vt 0.1459 0.0594
vt 0.1055 0.0191
vt 0.4294 0.0191
vt 0.1459 0.4588
vt 0.1056 0.4991
vt 0.3892 0.4587
vt 0.4295 0.4991
vt 0.1456 0.4588
vt 0.3889 0.4587
vt 0.4292 0.4991
vt 0.1053 0.4991
vt 0.3888 0.0594
vt 0.4291 0.0191
vt 0.1456 0.0594
vt 0.1052 0.0191
vt 0.5423 0.2627
vt 0.5423 0.0195
vt 0.5903 0.0195
vt 0.5903 0.2627
vt 0.4617 0.0457
vt 0.5097 0.0457
vt 0.5097 0.4450
vt 0.4617 0.4450
vt 0.5423 0.0191
vt 0.5903 0.0191
vt 0.5903 0.2624
vt 0.5423 0.2624
vt 0.4617 0.4447
vt 0.4617 0.0454
vt 0.5097 0.0454
vt 0.5097 0.4447
vt 0.9837 0.5309
vt 0.9841 0.9853
vt 0.0248 0.9861
vt 0.0244 0.5317
vn 0.0000 1.0000 0.0000
vn 1.0000 0.0000 0.0000
vn -1.0000 0.0000 0.0000
vn 0.0000 -1.0000 0.0000
vn 0.0000 0.0000 1.0000
vn -0.0000 0.0000 -1.0000
usemtl Material.004
s off
f 13/1/1 15/2/1 10/3/1 11/4/1
f 14/5/2 13/6/2 11/7/2 12/8/2
f 9/9/3 10/10/3 15/11/3 16/12/3
f 12/13/4 9/14/4 16/15/4 14/16/4
f 8/17/5 4/18/5 10/19/5 9/20/5
f 4/18/5 2/21/5 11/22/5 10/19/5
f 2/21/5 5/23/5 12/24/5 11/22/5
f 6/25/6 1/26/6 13/27/6 14/28/6
f 1/26/6 3/29/6 15/30/6 13/27/6
f 3/29/6 7/31/6 16/32/6 15/30/6
f 5/23/5 8/17/5 9/20/5 12/24/5
f 7/31/6 6/25/6 14/28/6 16/32/6
f 5/33/3 2/34/3 1/35/3 6/36/3
f 5/37/1 6/38/1 7/39/1 8/40/1
f 8/41/2 7/42/2 3/43/2 4/44/2
f 2/45/4 4/46/4 3/47/4 1/48/4
f 29/49/1 31/50/1 26/51/1 27/52/1
f 30/53/2 29/54/2 27/55/2 28/56/2
f 25/57/3 26/58/3 31/59/3 32/60/3
f 28/61/4 25/62/4 32/63/4 30/64/4
f 24/65/5 20/66/5 26/67/5 25/68/5
f 20/66/5 18/69/5 27/70/5 26/67/5
f 18/69/5 21/71/5 28/72/5 27/70/5
f 22/73/6 17/74/6 29/75/6 30/76/6
f 17/74/6 19/77/6 31/78/6 29/75/6
f 19/77/6 23/79/6 32/80/6 31/78/6
f 21/71/5 24/65/5 25/68/5 28/72/5
f 23/79/6 22/73/6 30/76/6 32/80/6
f 21/81/3 18/82/3 17/83/3 22/84/3
f 21/85/1 22/86/1 23/87/1 24/88/1
f 24/89/2 23/90/2 19/91/2 20/92/2
f 18/93/4 20/94/4 19/95/4 17/96/4
f 45/97/1 47/98/1 42/99/1 43/100/1
f 46/101/2 45/102/2 43/103/2 44/104/2
f 41/105/3 42/106/3 47/107/3 48/108/3
f 44/109/4 41/110/4 48/111/4 46/112/4
f 40/113/5 36/114/5 42/115/5 41/116/5
f 36/114/5 34/117/5 43/118/5 42/115/5
f 34/117/5 37/119/5 44/120/5 43/118/5
f 38/121/6 33/122/6 45/123/6 46/124/6
f 33/122/6 35/125/6 47/126/6 45/123/6
f 35/125/6 39/127/6 48/128/6 47/126/6
f 37/119/5 40/113/5 41/116/5 44/120/5
f 39/127/6 38/121/6 46/124/6 48/128/6
f 37/129/3 34/130/3 33/131/3 38/132/3
f 37/133/1 38/134/1 39/135/1 40/136/1
f 40/137/2 39/138/2 35/139/2 36/140/2
f 34/141/4 36/142/4 35/143/4 33/144/4
f 49/145/5 50/146/5 52/147/5 51/148/5
