# Blender v2.78 (sub 0) OBJ File: 'BigBed.blend'
# www.blender.org
mtllib BigBed.mtl
o Cube_Cube.007
v 2.697600 0.693244 0.041500
v 2.697600 0.453086 0.041500
v 2.697600 0.693244 1.961658
v 2.697600 0.453086 1.961658
v -0.002558 0.693244 0.041500
v -0.002558 0.453086 0.041500
v -0.002558 0.693244 1.961658
v -0.002558 0.453086 1.961658
v 2.696393 0.484006 -0.050711
v 2.696393 0.411756 -0.050711
v 2.696393 0.484006 2.061464
v 2.696393 0.411756 2.061464
v -0.006257 0.484006 -0.050711
v -0.006257 0.411756 -0.050711
v -0.006257 0.484006 2.061464
v -0.006257 0.411756 2.061464
v 0.344379 0.484006 2.061464
v 0.344379 0.411756 2.061464
v -0.043987 1.481798 -0.558421
v -0.043987 0.100290 -0.558421
v -0.043987 1.481798 2.561579
v -0.043987 0.100290 2.561579
v 0.344379 0.484006 -0.050711
v 0.344379 0.411756 -0.050711
v -0.006257 0.411756 2.568430
v -0.006257 0.484006 2.568430
v 0.344379 0.484006 2.568430
v 0.344379 0.411756 2.568430
v -0.003988 1.481798 2.561579
v 0.344379 0.411756 -0.557677
v -0.003988 0.100290 2.561579
v 0.344379 0.484006 -0.557677
v -0.006257 0.484006 -0.557677
v -0.006257 0.411756 -0.557677
v -0.003988 0.100290 -0.558421
v -0.003988 1.481798 -0.558421
v 2.782221 0.484006 2.061464
v 2.782221 0.411756 2.061464
v 2.782221 0.484006 -0.050711
v 2.782221 0.411756 -0.050711
v 2.696393 0.050084 2.061464
v 2.696393 0.050084 -0.050711
v 2.782221 0.050084 2.061464
v 2.782221 0.050084 -0.050711
vt 0.0566 0.9275
vt 0.0568 0.4781
vt 0.3764 0.4782
vt 0.3762 0.9276
vt 0.0080 0.3612
vt 0.0080 0.3492
vt 0.0664 0.3492
vt 0.0664 0.3612
vt 0.5594 0.5883
vt 0.5597 0.1968
vt 0.9112 0.1971
vt 0.9109 0.5885
vt 0.1558 0.3337
vt 0.0715 0.3337
vt 0.0715 0.3217
vt 0.1558 0.3217
vt 0.5608 0.1979
vt 0.4764 0.1979
vt 0.4764 0.1395
vt 0.5608 0.1395
vt 0.0282 0.3782
vt 0.2827 0.3782
vt 0.2827 0.3856
vt 0.0282 0.3856
vt 0.4717 0.3947
vt 0.4717 0.4025
vt 0.0266 0.4025
vt 0.0267 0.3947
vt 0.5608 0.1275
vt 0.9124 0.1275
vt 0.9124 0.1395
vt 0.4721 0.3948
vt 0.4721 0.4026
vt 0.0265 0.4026
vt 0.0266 0.3948
vt 0.0280 0.3784
vt 0.2830 0.3784
vt 0.2830 0.3857
vt 0.0280 0.3858
vt 0.4462 0.9759
vt 0.4462 0.7459
vt 0.9655 0.7459
vt 0.9655 0.9759
vt 0.9656 0.7462
vt 0.9655 0.9761
vt 0.4462 0.9759
vt 0.4463 0.7460
vt 0.9113 0.1388
vt 0.9957 0.1388
vt 0.9957 0.1972
vt 0.9113 0.1972
vt 0.5572 0.6417
vt 0.9088 0.6417
vt 0.9088 0.7019
vt 0.5572 0.7019
vt 0.4764 0.1275
vt 0.5476 0.3218
vt 0.5476 0.3338
vt 0.1561 0.3338
vt 0.1561 0.3218
vt 0.9124 0.1979
vt 0.0717 0.3219
vt 0.0717 0.3340
vt 0.0133 0.3340
vt 0.0133 0.3219
vt 0.9124 0.5893
vt 0.5608 0.5893
vt 0.9967 0.1395
vt 0.9967 0.1979
vt 0.1508 0.3612
vt 0.1508 0.3492
vt 0.5598 0.1384
vt 0.9113 0.1387
vt 0.5596 0.1969
vt 0.4752 0.1969
vt 0.4752 0.1385
vt 0.5596 0.1385
vt 0.9967 0.1275
vt 0.5422 0.3492
vt 0.5422 0.3612
vt 0.5569 0.6414
vt 0.5569 0.6294
vt 0.9085 0.6296
vt 0.9085 0.6416
vt 0.5396 0.3110
vt 0.5275 0.3109
vt 0.5275 0.2967
vt 0.5396 0.2967
vt 0.0552 0.3104
vt 0.0432 0.3104
vt 0.0432 0.2961
vt 0.0552 0.2961
vt 0.5570 0.6149
vt 0.9085 0.6152
vt 0.9085 0.6295
vt 0.5570 0.6292
vt 0.4673 0.3109
vt 0.1158 0.3105
vt 0.1158 0.2962
vt 0.4673 0.2966
vt 0.1154 0.2962
vt 0.1154 0.3105
vt 0.5570 0.6413
vt 0.9086 0.6418
vt 0.9085 0.7019
vt 0.5569 0.7015
vt 0.3760 0.4788
vt 0.3759 0.9282
vt 0.0563 0.9281
vt 0.0564 0.4787
vt 0.0168 0.4787
vt 0.0568 0.4787
vt 0.0567 0.9281
vt 0.0167 0.9281
vt 0.0570 0.4788
vt 0.0570 0.4388
vt 0.3766 0.4391
vt 0.3766 0.4791
vt 0.4162 0.9277
vt 0.3762 0.9276
vt 0.3763 0.4782
vt 0.4163 0.4783
vt 0.3761 0.9281
vt 0.3761 0.9681
vt 0.0565 0.9679
vt 0.0566 0.9279
vn 0.0000 -1.0000 0.0000
vn 0.0000 0.0000 -1.0000
vn 0.0000 1.0000 -0.0000
vn 1.0000 0.0000 0.0000
vn 0.0000 0.0000 1.0000
vn -1.0000 0.0000 0.0000
vn 0.5773 0.5773 -0.5773
vn -0.5773 0.5773 -0.5773
vn -0.5773 0.5773 0.5773
vn 0.5773 0.5773 0.5773
vn 0.5773 -0.5773 0.5773
vn -0.5773 -0.5773 0.5773
vn 0.5773 -0.5773 -0.5773
vn -0.5773 -0.5773 -0.5773
usemtl Material.004
s off
f 6/1/1 2/2/1 4/3/1 8/4/1
f 34/5/2 33/6/2 32/7/2 30/8/2
f 9/9/3 23/10/3 17/11/3 11/12/3
f 17/13/4 27/14/4 28/15/4 18/16/4
f 18/17/1 28/18/1 25/19/1 16/20/1
f 31/21/5 29/22/5 21/23/5 22/24/5
f 20/25/1 35/26/1 31/27/1 22/28/1
f 15/29/6 13/30/6 14/31/6 16/20/6
f 36/32/3 19/33/3 21/34/3 29/35/3
f 20/36/2 19/37/2 36/38/2 35/39/2
f 22/40/6 21/41/6 19/42/6 20/43/6
f 35/44/4 36/45/4 29/46/4 31/47/4
f 15/48/3 26/49/3 27/50/3 17/51/3
f 12/52/6 10/53/6 42/54/6 41/55/6
f 16/20/6 25/19/6 26/56/6 15/29/6
f 12/57/5 11/58/5 17/59/5 18/60/5
f 14/31/1 24/61/1 18/17/1 16/20/1
f 28/62/5 27/63/5 26/64/5 25/65/5
f 24/61/1 10/66/1 12/67/1 18/17/1
f 14/31/1 34/68/1 30/69/1 24/61/1
f 24/70/4 30/8/4 32/7/4 23/71/4
f 23/10/3 13/72/3 15/73/3 17/11/3
f 23/74/3 32/75/3 33/76/3 13/77/3
f 13/30/6 33/78/6 34/68/6 14/31/6
f 24/70/2 23/71/2 9/79/2 10/80/2
f 40/81/4 39/82/4 37/83/4 38/84/4
f 11/85/5 12/86/5 38/87/5 37/88/5
f 10/89/2 9/90/2 39/91/2 40/92/2
f 9/93/3 11/94/3 37/95/3 39/96/3
f 41/97/1 42/98/1 44/99/1 43/100/1
f 10/89/2 40/92/2 44/101/2 42/102/2
f 40/103/4 38/104/4 43/105/4 44/106/4
f 38/87/5 12/86/5 41/97/5 43/100/5
s 1
f 1/107/7 5/108/8 7/109/9 3/110/10
f 4/111/11 3/112/10 7/113/9 8/114/12
f 2/115/13 1/116/7 3/117/10 4/118/11
f 6/119/14 5/120/8 1/121/7 2/122/13
f 8/123/12 7/124/9 5/125/8 6/126/14
