# Blender v2.78 (sub 0) OBJ File: 'WallLight.blend'
# www.blender.org
mtllib WallLight.mtl
o Cube_Cube.007
v -0.163129 -0.907280 1.824458
v -0.163129 -0.507280 1.824458
v -0.163129 -0.907280 1.424458
v -0.163129 -0.507280 1.424458
v 0.236871 -0.907280 1.824458
v 0.236871 -0.507280 1.824458
v 0.236871 -0.907280 1.424458
v 0.236871 -0.507280 1.424458
v 0.257196 0.893659 2.124458
v 0.257196 -1.106341 2.124458
v 0.257196 0.893659 1.124458
v 0.257196 -1.106341 1.124458
vt 0.7006 0.2001
vt 0.7006 0.0002
vt 0.9005 0.0002
vt 0.9005 0.2001
vt 0.5003 0.8002
vt 0.5003 0.6003
vt 0.7003 0.6003
vt 0.7003 0.8002
vt 0.9005 0.2004
vt 0.9005 0.4004
vt 0.7006 0.4004
vt 0.7006 0.2004
vt 0.7003 0.2001
vt 0.7003 0.4000
vt 0.5003 0.4000
vt 0.5003 0.2001
vt 0.5003 0.0002
vt 0.7003 0.0002
vt 0.7003 0.6000
vt 0.5003 0.6000
vt 0.0002 0.9998
vt 0.0002 0.0002
vt 0.5000 0.0002
vt 0.5000 0.9998
vn -1.0000 0.0000 0.0000
vn 0.0000 0.0000 -1.0000
vn 1.0000 0.0000 0.0000
vn 0.0000 0.0000 1.0000
vn 0.0000 -1.0000 0.0000
vn 0.0000 1.0000 0.0000
usemtl Material.004
s off
f 1/1/1 2/2/1 4/3/1 3/4/1
f 3/5/2 4/6/2 8/7/2 7/8/2
f 7/9/3 8/10/3 6/11/3 5/12/3
f 5/13/4 6/14/4 2/15/4 1/16/4
f 3/17/5 7/18/5 5/13/5 1/16/5
f 8/19/6 4/20/6 2/15/6 6/14/6
f 9/21/3 10/22/3 12/23/3 11/24/3
