# Blender v2.78 (sub 0) OBJ File: 'BigBlock.blend'
# www.blender.org
mtllib BigBlock.mtl
o Cube_Cube.007
v 0.559016 0.811384 -0.193892
v 0.559016 -1.188616 -0.193892
v 0.559016 0.811384 0.806109
v 0.559016 -1.188616 0.806109
v -0.440983 0.811384 -0.193892
v -0.440983 -1.188616 -0.193892
v -0.440983 0.811384 0.806109
v -0.440983 -1.188616 0.806109
vt 0.3456 0.6616
vt 0.3456 0.9710
vt 0.0362 0.9710
vt 0.0362 0.6616
vt 0.3449 0.6621
vt 0.3449 0.9714
vt 0.0355 0.9714
vt 0.0355 0.6621
vt 0.9854 0.0279
vt 0.9854 0.6465
vt 0.6760 0.6465
vt 0.6760 0.0279
vt 0.3435 0.0299
vt 0.3435 0.6486
vt 0.0341 0.6486
vt 0.0341 0.0299
vt 0.6689 0.0301
vt 0.6691 0.6487
vt 0.3597 0.6488
vt 0.3596 0.0302
vt 0.3437 0.0311
vt 0.3420 0.6498
vt 0.0327 0.6489
vt 0.0344 0.0303
vn 0.0000 1.0000 0.0000
vn 0.0000 -1.0000 0.0000
vn 0.0000 0.0000 1.0000
vn 1.0000 0.0000 0.0000
vn 0.0000 0.0000 -1.0000
vn -1.0000 0.0000 0.0000
usemtl Material.004
s off
f 1/1/1 5/2/1 7/3/1 3/4/1
f 6/5/2 2/6/2 4/7/2 8/8/2
f 4/9/3 3/10/3 7/11/3 8/12/3
f 2/13/4 1/14/4 3/15/4 4/16/4
f 6/17/5 5/18/5 1/19/5 2/20/5
f 8/21/6 7/22/6 5/23/6 6/24/6
