# Blender v2.78 (sub 0) OBJ File: 'Fenetre.blend'
# www.blender.org
mtllib Fenetre.mtl
o Fenetre_Cube.001
v -2.103496 -0.562484 6.982125
v -2.060163 0.599253 6.982125
v -2.060163 -0.606481 6.982125
v -2.103496 -0.562484 7.030958
v -2.060163 -0.606481 7.030958
v -2.060163 0.599253 7.030958
v -2.103496 0.558189 6.982125
v -2.103496 0.558189 7.030958
v -2.949083 0.599253 7.030958
v -2.949083 -0.606007 6.982125
v -2.949083 -0.606007 7.030958
v -2.949083 0.599253 6.982125
v -2.900007 0.558189 7.030958
v -2.900007 0.558189 6.982125
v -2.900007 -0.561423 7.030958
v -2.900007 -0.561423 6.982125
v -2.061274 -0.606007 7.030957
v -2.104487 -0.561423 7.030957
v -2.061275 -0.606007 6.982125
v -2.104487 -0.561423 6.982125
v -2.915159 -0.590777 7.009041
v -2.076512 -0.590777 7.009041
v -2.915159 0.587870 7.009041
v -2.076512 0.587870 7.009041
vt 0.6958 0.0000
vt 0.7912 0.0000
vt 0.7912 0.8181
vt 0.6958 0.8181
vt 0.8887 0.0664
vt 0.8887 0.1329
vt 0.7912 0.1329
vt 0.7912 0.0664
vt 0.9861 0.1329
vt 0.9826 0.1751
vt 0.8920 0.1751
vt 0.8886 0.1329
vt 0.7912 0.2657
vt 0.7912 0.1993
vt 0.8818 0.1993
vt 0.8818 0.2657
vt 0.8850 0.3136
vt 0.8817 0.2657
vt 0.9792 0.2657
vt 0.9756 0.3136
vt 0.8853 0.2416
vt 0.8818 0.1993
vt 0.9793 0.1993
vt 0.9760 0.2416
vt 0.9934 0.1329
vt 0.9934 0.9989
vt 0.9898 0.9510
vt 0.9898 0.1750
vt 0.6958 0.0000
vt 0.6958 0.7770
vt 0.5219 0.7770
vt 0.5219 0.0000
vt 1.0000 0.1329
vt 1.0000 1.0000
vt 0.9967 0.9577
vt 0.9967 0.1807
vt 0.7912 0.0000
vt 0.9019 0.0000
vt 0.9019 0.0664
vt 0.7912 0.0664
vt 0.8886 0.1329
vt 0.8886 0.1993
vt 0.7912 0.1993
vt 0.7912 0.1329
vt 0.9934 0.9521
vt 0.9934 0.1751
vt 0.9967 0.1329
vt 0.9967 1.0000
vt 0.8817 0.2657
vt 0.8817 0.3321
vt 0.7912 0.3321
vt 0.7912 0.2657
vt 0.0000 0.0000
vt 0.1740 0.0000
vt 0.1740 0.8671
vt 0.0000 0.8671
vt 0.9792 0.3615
vt 0.8817 0.3615
vt 0.8850 0.3136
vt 0.9756 0.3136
vt 0.5219 0.0000
vt 0.5219 0.0422
vt 0.3479 0.0422
vt 0.3479 0.0000
vt 0.9861 0.9568
vt 0.9861 0.1807
vt 0.9898 0.1329
vt 0.9898 0.9989
vt 0.1740 0.8660
vt 0.1740 0.0000
vt 0.3479 0.0000
vt 0.3479 0.8660
vt 0.5219 0.8182
vt 0.3479 0.8182
vn 0.0000 0.0000 -1.0000
vn 1.0000 0.0000 0.0000
vn -1.0000 0.0000 0.0000
vn -0.0000 0.0000 1.0000
vn 0.0000 -1.0000 0.0000
vn -0.7125 -0.7017 0.0000
vn 0.0000 1.0000 0.0000
vn 0.7181 0.6960 -0.0000
usemtl Glass
s off
f 21/1/1 23/2/1 24/3/1 22/4/1
usemtl Fenetre
f 5/5/2 3/6/2 2/7/2 6/8/2
f 3/9/1 1/10/1 7/11/1 2/12/1
f 1/13/3 4/14/3 8/15/3 7/16/3
f 13/17/4 9/18/4 11/19/4 15/20/4
f 4/21/4 5/22/4 6/23/4 8/24/4
f 19/25/1 10/26/1 16/27/1 20/28/1
f 14/29/5 7/30/5 8/31/5 13/32/5
f 12/33/1 2/34/1 7/35/1 14/36/1
f 1/37/6 3/38/6 5/39/6 4/40/6
f 9/41/3 12/42/3 10/43/3 11/44/3
f 13/45/4 8/46/4 6/47/4 9/48/4
f 14/49/2 13/50/2 15/51/2 16/52/2
f 6/53/7 2/54/7 12/55/7 9/56/7
f 10/57/1 12/58/1 14/59/1 16/60/1
f 19/61/8 20/62/8 18/63/8 17/64/8
f 18/65/4 15/66/4 11/67/4 17/68/4
f 17/69/5 11/70/5 10/71/5 19/72/5
f 20/62/7 16/73/7 15/74/7 18/63/7
