# Blender v2.78 (sub 0) OBJ File: 'WC.blend'
# www.blender.org
mtllib WC.mtl
o Cube_Cube.007
v 0.104108 0.384034 -0.245310
v 0.084974 0.268172 -0.141999
v 0.145110 0.383991 0.342531
v 0.117775 0.268215 0.328274
v -0.087233 0.384034 -0.245310
v -0.068099 0.268172 -0.141999
v -0.128234 0.383991 0.342531
v -0.100900 0.268215 0.328274
v -0.264906 0.383991 0.171691
v 0.227113 0.268215 0.191602
v 0.281781 0.383991 0.000852
v 0.227113 0.268215 0.054930
v -0.144635 0.268175 -0.081741
v -0.264906 0.383991 0.000852
v -0.210237 0.268215 0.191602
v -0.210237 0.268215 0.054930
v 0.281781 0.383991 0.171691
v 0.199778 0.384031 -0.169988
v -0.182903 0.384031 -0.169988
v 0.161510 0.268175 -0.081741
v 0.188157 0.425397 -0.158877
v -0.171282 0.425397 -0.158877
v -0.248304 0.425359 0.001586
v 0.265179 0.425359 0.001586
v 0.265179 0.425359 0.162040
v -0.248304 0.425359 0.162040
v -0.119933 0.425359 0.322504
v 0.136808 0.425359 0.322504
v 0.098297 0.425400 -0.229632
v -0.081422 0.425400 -0.229632
v -0.171282 0.425397 -0.158885
v 0.188157 0.425397 -0.158885
v 0.265179 0.425359 0.001577
v -0.248304 0.425359 0.001577
v -0.248304 0.425359 0.162040
v 0.265179 0.425359 0.162040
v -0.088081 0.224333 0.061585
v 0.104956 0.224333 0.061585
v 0.146321 0.224358 0.147762
v -0.129446 0.224358 0.147762
v -0.039822 0.224331 0.023584
v 0.056697 0.224331 0.023584
v 0.104956 0.224333 0.061578
v -0.088081 0.224333 0.061578
v -0.129446 0.224358 0.233931
v 0.146321 0.224358 0.233931
v 0.077379 0.224358 0.320109
v -0.060504 0.224358 0.320109
v -0.129446 0.224358 0.147754
v 0.146321 0.224358 0.147754
v 0.146321 0.224358 0.233931
v -0.129446 0.224358 0.233931
v -0.099703 0.656657 0.363554
v -0.099703 0.820027 0.363554
v -0.069732 0.675890 0.340227
v -0.069732 0.800794 0.340227
v 0.154881 0.656657 0.363554
v 0.154881 0.820027 0.363554
v 0.124910 0.675890 0.340227
v 0.124910 0.800794 0.340227
vt 0.3617 0.3267
vt 0.3121 0.2446
vt 0.3471 0.2413
vt 0.5878 0.8956
vt 0.4673 0.6149
vt 0.5809 0.6415
vt 0.2311 0.9274
vt 0.0463 0.6539
vt 0.2290 0.6284
vt 0.7069 0.6756
vt 0.6658 0.8627
vt 0.6486 0.6527
vt 0.3994 0.9257
vt 0.2955 0.6122
vt 0.4073 0.6220
vt 0.4650 0.2865
vt 0.4554 0.2770
vt 0.4599 0.2776
vt 0.1092 0.3547
vt 0.0595 0.2355
vt 0.1167 0.2034
vt 0.2192 0.3546
vt 0.1775 0.2230
vt 0.2180 0.2094
vt 0.3203 0.3231
vt 0.4615 0.9250
vt 0.0974 0.9019
vt 0.7434 0.8260
vt 0.2906 0.9322
vt 0.4610 0.2898
vt 0.0580 0.3162
vt 0.1757 0.3357
vt 0.2702 0.4271
vt 0.2835 0.1393
vt 0.4428 0.3995
vt 0.7132 0.1416
vt 0.5424 0.3509
vt 0.5350 0.2085
vt 0.3053 0.5759
vt 0.9230 0.2767
vt 0.7345 0.1873
vt 0.9020 0.1873
vt 0.0159 0.1250
vt 0.1571 0.1499
vt 0.0513 0.1967
vt 0.1294 0.5146
vt 0.1383 0.4085
vt 0.4422 0.1635
vt 0.3188 0.0002
vt 0.0002 0.4174
vt 0.0450 0.3524
vt 0.5698 0.0190
vt 0.5741 0.5498
vt 0.1551 0.0460
vt 0.6188 0.6027
vt 0.6234 0.9370
vt 0.4253 0.9673
vt 0.4420 0.5781
vt 0.2678 0.5763
vt 0.2567 0.9673
vt 0.0827 0.9367
vt 0.0546 0.9191
vt 0.0002 0.6550
vt 0.0287 0.6055
vt 0.7427 0.6617
vt 0.7816 0.8219
vt 0.7714 0.8773
vt 0.7244 0.6386
vt 0.7655 0.1531
vt 0.4516 0.9998
vt 0.0159 0.9677
vt 0.4400 0.9677
vt 0.9035 0.9677
vt 0.4678 0.9998
vt 0.4520 0.9677
vt 0.7215 0.0002
vt 0.7426 0.1091
vt 0.7136 0.1292
vt 0.7494 0.0222
vt 0.8948 0.1260
vt 0.8876 0.0239
vt 0.9299 0.1398
vt 0.9086 0.4022
vt 0.7136 0.2771
vt 0.9086 0.2771
vt 0.9152 0.0002
vt 0.7132 0.4230
vt 0.7136 0.2767
vt 0.8711 0.1531
vt 0.0002 0.9998
vt 0.8918 0.9998
vt 0.7136 0.4022
vt 0.9158 0.1527
vn 0.0000 -1.0000 0.0003
vn 0.0000 1.0000 0.0002
vn 0.0000 1.0000 -0.0000
vn 0.0000 -1.0000 0.0001
vn 0.0000 -1.0000 -0.0000
vn -0.4372 -0.2347 0.8681
vn 0.6789 -0.7201 -0.1435
vn -0.6789 -0.7201 -0.1435
vn 0.1220 -0.9810 -0.1508
vn 0.4902 -0.7874 -0.3736
vn -0.0564 -0.2138 -0.9752
vn 0.1932 -0.8258 -0.5298
vn -0.1932 -0.8258 -0.5298
vn 0.9696 -0.0691 -0.2345
vn 0.2376 0.0903 0.9671
vn -0.4256 -0.3673 0.8270
vn 0.4256 -0.3673 0.8270
vn -0.2376 0.0903 0.9671
vn -0.7530 -0.5991 0.2722
vn 0.9500 0.0201 0.3116
vn 0.7530 -0.5991 0.2722
vn -0.4902 -0.7874 -0.3736
vn -0.9696 -0.0691 -0.2345
vn -0.7614 -0.1276 -0.6356
vn 0.7614 -0.1276 -0.6356
vn -0.9500 0.0201 0.3116
vn -0.3400 0.7351 -0.5865
vn -0.5688 0.6594 0.4915
vn 0.5688 0.6594 0.4915
vn -0.6137 0.6016 -0.5113
vn 0.1620 0.7712 0.6156
vn -0.1620 0.7712 0.6156
vn 0.2075 0.7637 -0.6113
vn 0.0564 -0.2138 -0.9752
vn 0.6949 0.5739 0.4332
vn -0.2075 0.7637 -0.6113
vn -0.4481 0.6681 -0.5939
vn -0.4508 0.7288 0.5153
vn 0.4508 0.7288 0.5153
vn -0.1220 -0.9810 -0.1508
vn 0.0583 -0.9876 -0.1457
vn -0.6276 -0.1586 0.7622
vn -0.0583 -0.9876 -0.1457
vn 0.3340 -0.9340 -0.1266
vn -0.1644 -0.7604 0.6283
vn -0.3340 -0.9340 -0.1266
vn 0.1923 -0.9677 -0.1632
vn -0.2645 -0.4083 0.8737
vn -0.1923 -0.9677 -0.1632
vn -0.7261 0.6537 0.2132
vn -0.2423 -0.3510 -0.9045
vn -0.7261 -0.6537 0.2132
vn -0.2423 0.3510 -0.9045
vn 0.2423 -0.3510 -0.9045
vn 0.2423 0.3510 -0.9045
vn 0.7261 -0.6537 0.2132
vn 0.7261 0.6537 0.2132
vn 0.4372 -0.2347 0.8681
vn 0.3400 0.7351 -0.5865
vn 0.6137 0.6016 -0.5113
vn -0.6949 0.5739 0.4332
vn 0.4481 0.6681 -0.5939
vn 0.6276 -0.1586 0.7622
vn 0.1644 -0.7604 0.6283
vn 0.2645 -0.4083 0.8737
usemtl Material.004
s off
f 38/1/1 40/2/1 37/3/1
f 22/4/2 24/5/2 21/6/2
f 26/7/3 28/8/3 25/9/3
f 29/10/3 31/11/3 32/12/3
f 34/13/3 36/14/3 33/15/3
f 42/16/4 44/17/4 41/18/4
f 46/19/5 48/20/5 45/21/5
f 50/22/5 52/23/5 49/24/5
f 38/1/1 39/25/1 40/2/1
f 22/4/2 23/26/2 24/5/2
f 26/7/3 27/27/3 28/8/3
f 29/10/3 30/28/3 31/11/3
f 34/13/3 35/29/3 36/14/3
f 42/16/4 43/30/4 44/17/4
f 46/19/5 47/31/5 48/20/5
f 50/22/5 51/32/5 52/23/5
s 1
f 40/2/6 12/33/7 16/34/8
f 12/33/7 38/1/9 20/35/10
f 5/36/11 2/37/12 6/38/13
f 20/35/10 11/39/14 12/33/7
f 3/40/15 8/41/16 4/42/17
f 7/43/18 15/44/19 8/45/16
f 12/33/7 17/46/20 10/47/21
f 38/1/9 13/48/22 20/35/10
f 14/49/23 13/48/22 16/34/8
f 10/47/21 3/50/15 4/51/17
f 19/52/24 6/38/13 13/48/22
f 2/37/12 18/53/25 20/35/10
f 9/54/26 16/34/8 15/44/19
f 22/4/27 18/55/25 19/56/24
f 23/26/28 19/56/24 14/57/23
f 24/5/29 14/57/23 11/58/14
f 18/55/25 24/5/29 11/58/14
f 26/7/30 17/59/20 9/60/26
f 27/27/31 9/60/26 7/61/18
f 28/8/32 7/62/18 3/63/15
f 17/59/20 28/8/32 3/64/15
f 30/28/33 1/65/34 5/66/11
f 19/56/24 30/28/33 5/67/11
f 32/12/35 19/56/24 18/55/25
f 29/10/36 18/55/25 1/68/34
f 34/13/37 11/58/14 14/57/23
f 35/29/38 14/57/23 9/60/26
f 36/14/39 9/60/26 17/59/20
f 11/58/14 36/14/39 17/59/20
f 37/3/40 16/34/8 13/48/22
f 42/16/41 6/38/13 2/37/12
f 20/35/10 42/16/41 2/37/12
f 44/17/42 20/35/10 13/48/22
f 41/18/43 13/48/22 6/38/13
f 46/19/44 15/44/19 10/47/21
f 4/51/17 46/19/44 10/47/21
f 48/69/45 4/42/17 8/41/16
f 45/21/46 8/45/16 15/44/19
f 50/22/47 16/34/8 12/33/7
f 10/47/21 50/22/47 12/33/7
f 52/23/48 10/47/21 15/44/19
f 49/24/49 15/44/19 16/34/8
f 1/70/34 28/71/32 29/72/36
f 5/73/11 27/74/31 7/75/18
f 54/76/50 55/77/51 53/78/52
f 56/79/53 59/80/54 55/77/51
f 60/81/55 57/82/56 59/80/54
f 58/83/57 53/84/52 57/85/56
f 59/80/54 53/78/52 55/77/51
f 56/79/53 58/86/57 60/81/55
f 40/2/6 39/25/58 12/33/7
f 12/33/7 39/25/58 38/1/9
f 5/36/11 1/87/34 2/37/12
f 20/35/10 18/53/25 11/39/14
f 3/40/15 7/88/18 8/41/16
f 7/43/18 9/54/26 15/44/19
f 12/33/7 11/39/14 17/46/20
f 38/1/9 37/3/40 13/48/22
f 14/49/23 19/52/24 13/48/22
f 10/47/21 17/46/20 3/50/15
f 19/52/24 5/36/11 6/38/13
f 2/37/12 1/87/34 18/53/25
f 9/54/26 14/49/23 16/34/8
f 22/4/27 21/6/59 18/55/25
f 23/26/28 22/4/27 19/56/24
f 24/5/29 23/26/28 14/57/23
f 18/55/25 21/6/59 24/5/29
f 26/7/30 25/9/60 17/59/20
f 27/27/31 26/7/30 9/60/26
f 28/8/32 27/27/31 7/62/18
f 17/59/20 25/9/60 28/8/32
f 30/28/33 29/10/36 1/65/34
f 19/56/24 31/11/61 30/28/33
f 32/12/35 31/11/61 19/56/24
f 29/10/36 32/12/35 18/55/25
f 34/13/37 33/15/62 11/58/14
f 35/29/38 34/13/37 14/57/23
f 36/14/39 35/29/38 9/60/26
f 11/58/14 33/15/62 36/14/39
f 37/3/40 40/2/6 16/34/8
f 42/16/41 41/18/43 6/38/13
f 20/35/10 43/30/63 42/16/41
f 44/17/42 43/30/63 20/35/10
f 41/18/43 44/17/42 13/48/22
f 46/19/44 45/21/46 15/44/19
f 4/51/17 47/31/64 46/19/44
f 48/69/45 47/89/64 4/42/17
f 45/21/46 48/20/45 8/45/16
f 50/22/47 49/24/49 16/34/8
f 10/47/21 51/32/65 50/22/47
f 52/23/48 51/32/65 10/47/21
f 49/24/49 52/23/48 15/44/19
f 1/70/34 3/90/15 28/71/32
f 5/73/11 30/91/33 27/74/31
f 54/76/50 56/79/53 55/77/51
f 56/79/53 60/81/55 59/80/54
f 60/81/55 58/86/57 57/82/56
f 58/83/57 54/92/50 53/84/52
f 59/80/54 57/93/56 53/78/52
f 56/79/53 54/76/50 58/86/57
