# Blender v2.78 (sub 0) OBJ File: 'Books.blend'
# www.blender.org
mtllib Books.mtl
o Cube.001_Cube.002
v -0.621205 0.003219 0.232195
v -0.621205 0.403219 0.232195
v -0.621205 0.003219 -0.167805
v -0.621205 0.403219 -0.167805
v 0.378795 0.003219 0.232195
v 0.378795 0.403219 0.232195
v 0.378795 0.003219 -0.167805
v 0.378795 0.403219 -0.167805
vt 0.0243 0.9699
vt 0.0243 0.6687
vt 0.3255 0.6687
vt 0.3255 0.9699
vt 0.0230 0.3237
vt 0.0230 0.0207
vt 0.8499 0.0207
vt 0.8499 0.3237
vt 0.3255 0.6687
vt 0.3255 0.9700
vt 0.0243 0.9700
vt 0.0243 0.6687
vt 0.8499 0.3431
vt 0.8499 0.6461
vt 0.0230 0.6461
vt 0.0230 0.3431
vt 0.0230 0.3433
vt 0.8499 0.3433
vt 0.8499 0.6464
vt 0.0230 0.6464
vt 0.8502 0.3433
vt 0.8502 0.6464
vt 0.0232 0.6464
vt 0.0232 0.3433
vn -1.0000 0.0000 0.0000
vn 0.0000 0.0000 -1.0000
vn 1.0000 0.0000 0.0000
vn 0.0000 0.0000 1.0000
vn 0.0000 -1.0000 0.0000
vn 0.0000 1.0000 0.0000
usemtl None
s off
f 1/1/1 2/2/1 4/3/1 3/4/1
f 3/5/2 4/6/2 8/7/2 7/8/2
f 7/9/3 8/10/3 6/11/3 5/12/3
f 5/13/4 6/14/4 2/15/4 1/16/4
f 3/17/5 7/18/5 5/19/5 1/20/5
f 8/21/6 4/22/6 2/23/6 6/24/6
