# Blender v2.78 (sub 0) OBJ File: 'Library.blend'
# www.blender.org
mtllib Library.mtl
o Cube_Cube.001
v -1.851843 0.980975 1.577624
v -1.851843 1.080975 1.577624
v -1.851843 0.980975 0.977624
v -1.851843 1.080975 0.977624
v 2.148157 0.980975 1.577624
v 2.148157 1.080975 1.577624
v 2.148157 0.980975 0.977624
v 2.148157 1.080975 0.977624
v -0.827229 2.076116 1.577624
v -0.827229 2.176116 1.577624
v -0.827229 2.076116 0.977624
v -0.827229 2.176116 0.977624
v 2.145856 2.076116 1.577624
v 2.145856 2.176116 1.577624
v 2.145856 2.076116 0.977624
v 2.145856 2.176116 0.977624
v -2.640070 0.011318 1.577624
v -2.640070 0.111318 1.577624
v -2.640070 0.011318 0.977624
v -2.640070 0.111318 0.977624
v 2.219697 0.011318 1.577624
v 2.219697 0.111318 1.577624
v 2.219697 0.011318 0.977624
v 2.219697 0.111318 0.977624
v 2.147216 4.014235 1.577624
v 2.247216 4.014235 1.577624
v 2.147216 4.014235 0.977624
v 2.247216 4.014235 0.977624
v 2.147216 0.014235 1.577624
v 2.247216 0.014235 1.577624
v 2.147216 0.014235 0.977624
v 2.247216 0.014235 0.977624
v -0.081723 3.006208 1.577624
v 0.018277 3.006208 1.577624
v -0.081723 3.006208 0.977624
v 0.018277 3.006208 0.977624
v -0.081723 0.033124 1.577624
v 0.018277 0.033124 1.577624
v -0.081723 0.033124 0.977624
v 0.018277 0.033124 0.977624
vt 0.1302 0.6966
vt 0.1302 0.6699
vt 0.0270 0.6699
vt 0.0270 0.6966
vt 0.0258 0.6605
vt 0.0258 0.6343
vt 0.7378 0.6343
vt 0.7378 0.6605
vt 0.1312 0.6701
vt 0.1312 0.6964
vt 0.0261 0.6964
vt 0.0261 0.6701
vt 0.7374 0.6346
vt 0.7374 0.6611
vt 0.0238 0.6611
vt 0.0238 0.6346
vt 0.7372 0.6221
vt 0.0237 0.6221
vt 0.0237 0.4631
vt 0.7372 0.4631
vt 0.7379 0.6221
vt 0.0236 0.6221
vt 0.0236 0.4619
vt 0.7379 0.4619
vt 0.1273 0.4466
vt 0.1273 0.4199
vt 0.0241 0.4199
vt 0.0241 0.4466
vt 0.0247 0.4046
vt 0.0247 0.3785
vt 0.4810 0.3785
vt 0.4810 0.4046
vt 0.1283 0.4201
vt 0.1283 0.4464
vt 0.0232 0.4464
vt 0.0232 0.4201
vt 0.4808 0.3787
vt 0.4808 0.4052
vt 0.0234 0.4052
vt 0.0234 0.3787
vt 0.4806 0.3662
vt 0.0234 0.3662
vt 0.0234 0.2072
vt 0.4806 0.2072
vt 0.4811 0.3662
vt 0.0233 0.3662
vt 0.0233 0.2060
vt 0.4811 0.2060
vt 0.1670 0.9695
vt 0.1670 0.9427
vt 0.0275 0.9427
vt 0.0275 0.9695
vt 0.0259 0.9333
vt 0.0259 0.9072
vt 0.9874 0.9072
vt 0.9874 0.9333
vt 0.1683 0.9429
vt 0.1683 0.9692
vt 0.0263 0.9692
vt 0.0263 0.9429
vt 0.9869 0.9074
vt 0.9869 0.9339
vt 0.0232 0.9339
vt 0.0232 0.9074
vt 0.9866 0.8949
vt 0.0231 0.8949
vt 0.0231 0.7359
vt 0.9866 0.7359
vt 0.9876 0.8949
vt 0.0230 0.8949
vt 0.0230 0.7347
vt 0.9876 0.7347
vt 0.1302 0.6966
vt 0.1302 0.6699
vt 0.0270 0.6699
vt 0.0270 0.6966
vt 0.0258 0.6605
vt 0.0258 0.6343
vt 0.7378 0.6343
vt 0.7378 0.6605
vt 0.1312 0.6701
vt 0.1312 0.6964
vt 0.0261 0.6964
vt 0.0261 0.6701
vt 0.7374 0.6346
vt 0.7374 0.6611
vt 0.0238 0.6611
vt 0.0238 0.6346
vt 0.7372 0.6221
vt 0.0237 0.6221
vt 0.0237 0.4631
vt 0.7372 0.4631
vt 0.7379 0.6221
vt 0.0236 0.6221
vt 0.0236 0.4619
vt 0.7379 0.4619
vt 0.1273 0.4466
vt 0.1273 0.4199
vt 0.0241 0.4199
vt 0.0241 0.4466
vt 0.0247 0.4046
vt 0.0247 0.3785
vt 0.4810 0.3785
vt 0.4810 0.4046
vt 0.1283 0.4201
vt 0.1283 0.4464
vt 0.0232 0.4464
vt 0.0232 0.4201
vt 0.4808 0.3787
vt 0.4808 0.4052
vt 0.0234 0.4052
vt 0.0234 0.3787
vt 0.4806 0.3662
vt 0.0234 0.3662
vt 0.0234 0.2072
vt 0.4806 0.2072
vt 0.4811 0.3662
vt 0.0233 0.3662
vt 0.0233 0.2060
vt 0.4811 0.2060
vn -1.0000 0.0000 0.0000
vn 0.0000 0.0000 -1.0000
vn 1.0000 0.0000 0.0000
vn 0.0000 0.0000 1.0000
vn 0.0000 -1.0000 0.0000
vn 0.0000 1.0000 0.0000
usemtl None
s off
f 1/1/1 2/2/1 4/3/1 3/4/1
f 3/5/2 4/6/2 8/7/2 7/8/2
f 7/9/3 8/10/3 6/11/3 5/12/3
f 5/13/4 6/14/4 2/15/4 1/16/4
f 3/17/5 7/18/5 5/19/5 1/20/5
f 8/21/6 4/22/6 2/23/6 6/24/6
f 9/25/1 10/26/1 12/27/1 11/28/1
f 11/29/2 12/30/2 16/31/2 15/32/2
f 15/33/3 16/34/3 14/35/3 13/36/3
f 13/37/4 14/38/4 10/39/4 9/40/4
f 11/41/5 15/42/5 13/43/5 9/44/5
f 16/45/6 12/46/6 10/47/6 14/48/6
f 17/49/1 18/50/1 20/51/1 19/52/1
f 19/53/2 20/54/2 24/55/2 23/56/2
f 23/57/3 24/58/3 22/59/3 21/60/3
f 21/61/4 22/62/4 18/63/4 17/64/4
f 19/65/5 23/66/5 21/67/5 17/68/5
f 24/69/6 20/70/6 18/71/6 22/72/6
f 25/73/6 26/74/6 28/75/6 27/76/6
f 27/77/2 28/78/2 32/79/2 31/80/2
f 31/81/5 32/82/5 30/83/5 29/84/5
f 29/85/4 30/86/4 26/87/4 25/88/4
f 27/89/1 31/90/1 29/91/1 25/92/1
f 32/93/3 28/94/3 26/95/3 30/96/3
f 33/97/6 34/98/6 36/99/6 35/100/6
f 35/101/2 36/102/2 40/103/2 39/104/2
f 39/105/5 40/106/5 38/107/5 37/108/5
f 37/109/4 38/110/4 34/111/4 33/112/4
f 35/113/1 39/114/1 37/115/1 33/116/1
f 40/117/3 36/118/3 34/119/3 38/120/3
