# Blender v2.78 (sub 0) OBJ File: 'Carpet.blend'
# www.blender.org
mtllib Carpet.mtl
o Cube_Cube.003
v -1.248535 0.398368 1.412040
v -1.248535 0.408368 1.412040
v -1.248535 0.398368 -1.587960
v -1.248535 0.408368 -1.587960
v 0.751465 0.398368 1.412040
v 0.751465 0.408368 1.412040
v 0.751465 0.398368 -1.587960
v 0.751465 0.408368 -1.587960
vt 0.9595 0.9587
vt 0.3807 0.9587
vt 0.3807 0.0148
vt 0.9595 0.0148
vt 0.0868 0.5421
vt 0.0287 0.6105
vt 0.0158 0.4708
vt 0.0916 0.5326
vt 0.1693 0.4708
vt 0.1010 0.5408
vt 0.1606 0.6105
vt 0.0952 0.5474
vt 0.2303 0.5463
vt 0.2397 0.5545
vt 0.2339 0.5611
vt 0.2255 0.5558
vn 0.0000 1.0000 0.0000
vn -1.0000 0.0000 0.0000
vn 0.0000 0.0000 -1.0000
vn 1.0000 0.0000 0.0000
vn 0.0000 0.0000 1.0000
vn 0.0000 -1.0000 0.0000
usemtl Material.002
s off
f 8/1/1 4/2/1 2/3/1 6/4/1
usemtl Material.002_NONE
f 1/5/2 2/6/2 4/7/2 3/8/2
f 3/8/3 4/7/3 8/9/3 7/10/3
f 7/10/4 8/9/4 6/11/4 5/12/4
f 5/12/5 6/11/5 2/6/5 1/5/5
f 3/13/6 7/14/6 5/15/6 1/16/6
