# Blender v2.78 (sub 0) OBJ File: 'WashBlock2.blend'
# www.blender.org
mtllib WashBlock2.mtl
o Cube_Cube.007
v 0.974870 0.003032 -1.487577
v 0.974870 0.003032 0.514379
v -0.025130 0.003032 -1.487577
v -0.025130 0.003032 0.514379
v 0.974870 0.723325 0.514379
v -0.025130 0.723325 0.514379
v 0.974870 0.723325 -1.487577
v -0.025130 0.723325 -1.487577
vt 0.7710 0.0138
vt 0.7710 0.3921
vt 0.0138 0.3921
vt 0.0138 0.0138
vt 0.3914 0.7047
vt 0.3914 0.9772
vt 0.0132 0.9772
vt 0.0132 0.7047
vt 0.0183 0.4141
vt 0.7755 0.4141
vt 0.7755 0.6866
vt 0.0183 0.6866
vt 0.3908 0.7047
vt 0.3907 0.9772
vt 0.0125 0.9770
vt 0.0126 0.7046
vt 0.7722 0.4134
vt 0.7722 0.6859
vt 0.0150 0.6860
vt 0.0149 0.4136
vt 0.0122 0.0124
vt 0.7694 0.0102
vt 0.7705 0.3885
vt 0.0133 0.3906
vn 0.0000 -1.0000 0.0000
vn 0.0000 0.0000 1.0000
vn 1.0000 0.0000 0.0000
vn 0.0000 0.0000 -1.0000
vn -1.0000 0.0000 0.0000
vn 0.0000 1.0000 0.0000
usemtl Material.004
s off
f 3/1/1 1/2/1 2/3/1 4/4/1
f 2/5/2 5/6/2 6/7/2 4/8/2
f 2/9/3 1/10/3 7/11/3 5/12/3
f 3/13/4 8/14/4 7/15/4 1/16/4
f 4/17/5 6/18/5 8/19/5 3/20/5
f 5/21/6 7/22/6 8/23/6 6/24/6
