# Blender v2.78 (sub 0) OBJ File: 'Trash.blend'
# www.blender.org
mtllib Trash.mtl
o Cube_Cube.007
v 0.114882 -0.173637 -0.615994
v 0.114882 1.226363 -0.615994
v 0.364882 -0.173637 -0.549006
v 0.364882 1.226363 -0.549006
v 0.547895 -0.173637 -0.365994
v 0.547895 1.226363 -0.365994
v 0.614882 -0.173637 -0.115994
v 0.614882 1.226363 -0.115994
v 0.547895 -0.173637 0.134006
v 0.547895 1.226363 0.134006
v 0.364882 -0.173637 0.317019
v 0.364882 1.226363 0.317019
v 0.114882 -0.173637 0.384006
v 0.114882 1.226363 0.384006
v -0.135118 -0.173637 0.317019
v -0.135118 1.226363 0.317019
v -0.318130 -0.173637 0.134007
v -0.318130 1.226363 0.134007
v -0.385118 -0.173637 -0.115993
v -0.385118 1.226363 -0.115993
v -0.318131 -0.173637 -0.365993
v -0.318131 1.226363 -0.365993
v -0.135118 -0.173637 -0.549006
v -0.135118 1.226363 -0.549006
vt 0.5806 0.4927
vt 0.6222 0.5648
vt 0.6222 0.6482
vt 0.5806 0.7203
vt 0.5084 0.7620
vt 0.4251 0.7620
vt 0.3530 0.7203
vt 0.3113 0.6482
vt 0.3113 0.5648
vt 0.3530 0.4927
vt 0.4251 0.4510
vt 0.5084 0.4510
vt 0.3111 0.5648
vt 0.3111 0.6482
vt 0.2694 0.7203
vt 0.1972 0.7620
vt 0.1139 0.7620
vt 0.0418 0.7203
vt 0.0001 0.6482
vt 0.0001 0.5648
vt 0.0418 0.4927
vt 0.1139 0.4510
vt 0.1972 0.4510
vt 0.2694 0.4927
vt 0.9166 0.0001
vt 0.9166 0.4508
vt 0.8332 0.4508
vt 0.8332 0.0001
vt 0.7499 0.4508
vt 0.7499 0.0001
vt 0.6666 0.4508
vt 0.6666 0.0001
vt 0.5833 0.4508
vt 0.5833 0.0001
vt 0.5000 0.4508
vt 0.5000 0.0001
vt 0.4167 0.4508
vt 0.4167 0.0001
vt 0.3334 0.4508
vt 0.3334 0.0001
vt 0.2501 0.4508
vt 0.2501 0.0001
vt 0.1668 0.4508
vt 0.1668 0.0001
vt 0.0834 0.4508
vt 0.0834 0.0001
vt 0.0001 0.4508
vt 0.0001 0.0001
vt 0.9999 0.0001
vt 0.9999 0.4508
vn 0.0000 1.0000 0.0000
vn 0.0000 -1.0000 0.0000
vn 0.0000 -0.6532 -0.7571
vn 0.0000 0.6532 -0.7571
vn 0.3786 0.6532 -0.6557
vn 0.3786 -0.6532 -0.6557
vn 0.6557 0.6532 -0.3786
vn 0.6557 -0.6532 -0.3786
vn 0.7571 0.6532 0.0000
vn 0.7571 -0.6532 0.0000
vn 0.6557 0.6532 0.3786
vn 0.6557 -0.6532 0.3786
vn 0.3786 0.6532 0.6557
vn 0.3786 -0.6532 0.6557
vn 0.0000 0.6532 0.7571
vn 0.0000 -0.6532 0.7571
vn -0.3786 0.6532 0.6557
vn -0.3786 -0.6532 0.6557
vn -0.6557 0.6532 0.3786
vn -0.6557 -0.6532 0.3786
vn -0.7571 0.6532 0.0000
vn -0.7571 -0.6532 0.0000
vn -0.6557 0.6532 -0.3786
vn -0.6557 -0.6532 -0.3786
vn -0.3786 0.6532 -0.6557
vn -0.3786 -0.6532 -0.6557
usemtl Material.004
s off
f 4/1/1 2/2/1 24/3/1 22/4/1 20/5/1 18/6/1 16/7/1 14/8/1 12/9/1 10/10/1 8/11/1 6/12/1
f 1/13/2 3/14/2 5/15/2 7/16/2 9/17/2 11/18/2 13/19/2 15/20/2 17/21/2 19/22/2 21/23/2 23/24/2
s 1
f 1/25/3 2/26/4 4/27/5 3/28/6
f 3/28/6 4/27/5 6/29/7 5/30/8
f 5/30/8 6/29/7 8/31/9 7/32/10
f 7/32/10 8/31/9 10/33/11 9/34/12
f 9/34/12 10/33/11 12/35/13 11/36/14
f 11/36/14 12/35/13 14/37/15 13/38/16
f 13/38/16 14/37/15 16/39/17 15/40/18
f 15/40/18 16/39/17 18/41/19 17/42/20
f 17/42/20 18/41/19 20/43/21 19/44/22
f 19/44/22 20/43/21 22/45/23 21/46/24
f 21/46/24 22/45/23 24/47/25 23/48/26
f 23/49/26 24/50/25 2/26/4 1/25/3
