# Blender v2.78 (sub 0) OBJ File: 'Cadre.blend'
# www.blender.org
mtllib Cadre.mtl
o Cube_Cube.007
v 0.809803 1.130346 -0.076486
v 0.809803 -0.578174 -0.076486
v 0.955543 1.276086 0.123514
v 0.955543 -0.723914 0.123514
v -0.898717 1.130346 -0.076486
v -0.898717 -0.578174 -0.076486
v -1.044457 1.276086 0.123514
v -1.044457 -0.723914 0.123514
v 0.955543 1.276086 -0.076486
v 0.955543 -0.723914 -0.076486
v -1.044457 1.276086 -0.076486
v -1.044457 -0.723914 -0.076486
vt 0.9998 0.6477
vt 0.4610 0.6477
vt 0.4610 0.5938
vt 0.9998 0.5938
vt 0.4610 0.5395
vt 0.9998 0.5395
vt 0.9998 0.5934
vt 0.4610 0.5934
vt 0.5390 0.0002
vt 0.5390 0.5390
vt 0.0002 0.5390
vt 0.0002 0.0002
vt 0.0002 0.9998
vt 0.0002 0.5395
vt 0.4605 0.5395
vt 0.4605 0.9998
vt 0.6477 0.0002
vt 0.6477 0.5390
vt 0.5938 0.5390
vt 0.5938 0.0002
vt 0.5934 0.0002
vt 0.5934 0.5390
vt 0.5395 0.5390
vt 0.5395 0.0002
vt 0.6874 0.0395
vt 0.6874 0.4998
vt 0.6482 0.5390
vt 0.6482 0.0002
vt 0.9605 0.7271
vt 0.5002 0.7271
vt 0.4610 0.6879
vt 0.9998 0.6879
vt 0.5002 0.6482
vt 0.9605 0.6482
vt 0.9998 0.6874
vt 0.4610 0.6874
vt 0.6879 0.4998
vt 0.6879 0.0395
vt 0.7271 0.0002
vt 0.7271 0.5390
vn 0.0000 1.0000 0.0000
vn 0.0000 -1.0000 0.0000
vn 0.0000 0.0000 1.0000
vn 0.0000 0.0000 -1.0000
vn 1.0000 0.0000 0.0000
vn -1.0000 0.0000 0.0000
usemtl Material.004
s off
f 9/1/1 11/2/1 7/3/1 3/4/1
f 12/5/2 10/6/2 4/7/2 8/8/2
f 4/9/3 3/10/3 7/11/3 8/12/3
f 6/13/4 5/14/4 1/15/4 2/16/4
f 10/17/5 9/18/5 3/19/5 4/20/5
f 8/21/6 7/22/6 11/23/6 12/24/6
f 2/25/4 1/26/4 9/27/4 10/28/4
f 1/29/4 5/30/4 11/31/4 9/32/4
f 6/33/4 2/34/4 10/35/4 12/36/4
f 5/37/4 6/38/4 12/39/4 11/40/4
