# Blender v2.78 (sub 0) OBJ File: 'KitchenBlock.blend'
# www.blender.org
mtllib KitchenBlock.mtl
o Cube
v 0.106549 -0.351963 0.645271
v 0.106549 -0.254809 0.645271
v 0.106549 -0.351963 -0.326267
v 0.106549 -0.254809 -0.326267
v 1.078087 -0.351963 0.645271
v 1.078087 -0.254809 0.645271
v 1.078087 -0.351963 -0.326267
v 1.078087 -0.254809 -0.326267
v 1.133928 0.793229 -0.382107
v 1.133928 -0.289990 -0.382107
v 1.133928 0.793229 0.701112
v 1.133928 -0.289990 0.701112
v 0.050709 0.793229 -0.382107
v 0.050709 -0.289990 -0.382107
v 0.050709 0.793229 0.701112
v 0.050709 -0.289990 0.701112
v 0.050709 0.785902 0.703610
v 0.050709 0.894224 0.703610
v 0.050709 0.785902 -0.433770
v 0.050709 0.894224 -0.433770
v 1.133928 0.785902 0.703610
v 1.133928 0.894224 0.703610
v 1.133928 0.785902 -0.433770
v 1.133928 0.894224 -0.433770
vt 0.0000 0.0000
vt 0.0000 0.0000
vt 0.0000 0.0000
vt 0.0000 0.0000
vt 0.0000 0.0000
vt 0.0000 0.0000
vt 0.0000 0.0000
vt 0.0000 0.0000
vt 0.9193 0.2298
vt 0.9845 0.2298
vt 0.9845 0.6645
vt 0.9193 0.6645
vt 0.9845 0.6636
vt 0.9193 0.6636
vt 0.9193 0.2289
vt 0.9845 0.2289
vt 0.9836 0.0435
vt 0.9836 0.1740
vt 0.9184 0.1740
vt 0.9184 0.0435
vt 0.4555 0.0127
vt 0.4555 0.4871
vt 0.0143 0.4871
vt 0.0143 0.0127
vt 0.8899 0.0123
vt 0.8906 0.4867
vt 0.4534 0.4869
vt 0.4526 0.0124
vt 0.4551 0.0127
vt 0.4551 0.4871
vt 0.0141 0.4871
vt 0.0141 0.0127
vt 0.5104 0.4983
vt 0.5582 0.4983
vt 0.5579 0.9826
vt 0.5100 0.9826
vt 0.0067 0.4975
vt 0.0541 0.4975
vt 0.0541 0.9820
vt 0.0067 0.9820
vt 0.0516 0.4982
vt 0.5109 0.4983
vt 0.5103 0.9826
vt 0.0510 0.9826
vt 0.5100 0.4975
vt 0.5100 0.9820
vt 0.0536 0.9820
vt 0.0536 0.4975
vt 0.5544 0.9820
vt 0.5095 0.9820
vt 0.5095 0.4975
vt 0.5544 0.4975
vt 0.0503 0.9826
vt 0.0066 0.9826
vt 0.0069 0.4982
vt 0.0506 0.4982
vn -1.0000 0.0000 0.0000
vn 0.0000 0.0000 -1.0000
vn 1.0000 0.0000 0.0000
vn 0.0000 0.0000 1.0000
vn 0.0000 -1.0000 0.0000
vn 0.0000 1.0000 0.0000
usemtl Material
s off
f 1/1/1 2/2/1 4/3/1 3/4/1
f 3/4/2 4/3/2 8/5/2 7/6/2
f 7/6/3 8/5/3 6/7/3 5/8/3
f 5/8/4 6/7/4 2/2/4 1/1/4
f 3/4/5 7/6/5 5/8/5 1/1/5
f 8/5/6 4/3/6 2/2/6 6/7/6
f 9/9/6 13/10/6 15/11/6 11/12/6
f 14/13/5 10/14/5 12/15/5 16/16/5
f 12/17/4 11/18/4 15/19/4 16/20/4
f 10/21/3 9/22/3 11/23/3 12/24/3
f 14/25/2 13/26/2 9/27/2 10/28/2
f 16/29/1 15/30/1 13/31/1 14/32/1
f 23/33/3 24/34/3 22/35/3 21/36/3
f 21/37/4 22/38/4 18/39/4 17/40/4
f 19/41/5 23/42/5 21/43/5 17/44/5
f 24/45/6 20/46/6 18/47/6 22/48/6
f 19/49/2 20/50/2 24/51/2 23/52/2
f 17/53/1 18/54/1 20/55/1 19/56/1
