# Blender v2.78 (sub 0) OBJ File: 'Bar.blend'
# www.blender.org
mtllib Bar.mtl
o Cube
v -1.820611 0.607656 0.531273
v -1.820611 0.807657 0.531273
v -1.820611 0.607656 -0.468727
v -1.820611 0.807657 -0.468727
v 1.379389 0.607656 0.531273
v 1.379389 0.807657 0.531273
v 1.379389 0.607656 -0.468727
v 1.379389 0.807657 -0.468727
v 1.378572 -0.688980 -0.206786
v 1.378572 -0.688980 0.206786
v -1.378572 -0.688980 0.206786
v -1.378571 -0.688980 -0.206786
v 1.378572 0.688980 -0.206786
v 1.378571 0.688980 0.206786
v -1.378572 0.688980 0.206786
v -1.378572 0.688980 -0.206786
vt 0.9533 0.8599
vt 0.8951 0.8598
vt 0.8949 0.6041
vt 0.9531 0.6041
vt 0.9002 0.8601
vt 0.9002 0.9182
vt 0.1424 0.9182
vt 0.1424 0.8601
vt 0.0845 0.6035
vt 0.1427 0.6035
vt 0.1429 0.8592
vt 0.0847 0.8592
vt 0.1395 0.5985
vt 0.1395 0.5411
vt 0.8962 0.5402
vt 0.8963 0.5976
vt 0.8982 0.8587
vt 0.1429 0.8597
vt 0.1413 0.6049
vt 0.8967 0.6039
vt 0.1422 0.6035
vt 0.8944 0.6041
vt 0.8949 0.8598
vt 0.1427 0.8592
vt 0.1805 0.1534
vt 0.1804 0.0585
vt 0.7993 0.0585
vt 0.7993 0.1534
vt 0.8002 0.1534
vt 0.1814 0.1534
vt 0.1814 0.0585
vt 0.8002 0.0585
vt 0.0806 0.4982
vt 0.0813 0.1541
vt 0.1791 0.1544
vt 0.1784 0.4985
vt 0.8010 0.1538
vt 0.8010 0.4979
vt 0.1786 0.4979
vt 0.1786 0.1538
vt 0.1791 0.1545
vt 0.1784 0.4986
vt 0.0802 0.4983
vt 0.0809 0.1542
vt 0.8010 0.1543
vt 0.8010 0.4984
vt 0.1786 0.4984
vt 0.1786 0.1543
vn -1.0000 0.0000 0.0000
vn 0.0000 0.0000 -1.0000
vn 1.0000 0.0000 0.0000
vn 0.0000 0.0000 1.0000
vn 0.0000 -1.0000 0.0000
vn 0.0000 1.0000 0.0000
usemtl Material
s off
f 1/1/1 2/2/1 4/3/1 3/4/1
f 3/5/2 4/6/2 8/7/2 7/8/2
f 7/9/3 8/10/3 6/11/3 5/12/3
f 5/13/4 6/14/4 2/15/4 1/16/4
f 3/17/5 7/18/5 5/19/5 1/20/5
f 8/21/6 4/22/6 2/23/6 6/24/6
f 9/25/5 10/26/5 11/27/5 12/28/5
f 13/29/6 16/30/6 15/31/6 14/32/6
f 9/33/3 13/34/3 14/35/3 10/36/3
f 10/37/4 14/38/4 15/39/4 11/40/4
f 11/41/1 15/42/1 16/43/1 12/44/1
f 13/45/2 9/46/2 12/47/2 16/48/2
