# Blender v2.78 (sub 0) OBJ File: 'WashBlock.blend'
# www.blender.org
mtllib WhashBlock.mtl
o Cube_Cube.007
v 0.828945 0.723325 -1.341652
v 0.974870 0.003032 -1.487577
v 0.828945 0.723325 0.368454
v 0.974870 0.003032 0.514379
v 0.120795 0.723325 -1.341652
v -0.025130 0.003032 -1.487577
v 0.120795 0.723325 0.368454
v -0.025130 0.003032 0.514379
v 0.974870 0.723325 0.514379
v -0.025130 0.723325 0.514379
v 0.974870 0.723325 -1.487577
v -0.025130 0.723325 -1.487577
v 0.828945 0.702347 0.368454
v 0.120795 0.702347 0.368454
v 0.828945 0.702347 -1.341652
v 0.120795 0.702347 -1.341652
v 0.120795 0.630452 -0.100054
v 0.828945 0.630452 -0.858525
v 0.120795 0.630452 -0.858525
v 0.828945 0.630452 -0.100054
v 0.829300 0.724845 -0.511797
v 0.961308 0.723325 -0.511797
v 0.961308 0.723325 -0.465513
v 0.829300 0.724845 -0.466441
v 0.828945 0.723325 -0.565061
v 0.828945 0.723325 -0.442905
v 0.919695 0.846235 -0.511797
v 0.919695 0.846235 -0.465513
v 0.799752 0.889495 -0.511797
v 0.799752 0.889495 -0.466441
v 0.637515 0.889495 -0.511797
v 0.637515 0.889495 -0.466441
v 0.795226 0.837334 -0.466441
v 0.795226 0.837334 -0.511797
v 0.666709 0.838855 -0.466441
v 0.666709 0.838855 -0.511797
vt 0.8262 0.9385
vt 0.6070 0.9385
vt 0.6070 0.9320
vt 0.8262 0.9320
vt 0.6430 0.2356
vt 0.6430 0.5452
vt 0.0233 0.5452
vt 0.0233 0.2356
vt 0.3328 0.0121
vt 0.3328 0.2350
vt 0.0233 0.2350
vt 0.0233 0.0121
vt 0.9526 0.0120
vt 0.9526 0.2350
vt 0.6505 0.2350
vt 0.6362 0.2350
vt 0.3323 0.0119
vt 0.3324 0.2349
vt 0.0228 0.2350
vt 0.0228 0.0120
vt 0.0233 0.7687
vt 0.0233 0.5458
vt 0.6430 0.5458
vt 0.6430 0.7687
vt 0.8213 0.3260
vt 0.8217 0.5452
vt 0.7766 0.5905
vt 0.7760 0.2809
vt 0.8223 0.5452
vt 0.8219 0.3260
vt 0.8669 0.2807
vt 0.8676 0.5903
vt 0.7167 0.8213
vt 0.7155 0.2919
vt 0.7606 0.2466
vt 0.7620 0.8663
vt 0.6070 0.9391
vt 0.8262 0.9391
vt 0.8262 0.9456
vt 0.6070 0.9456
vt 0.9541 0.3087
vt 0.9512 0.8227
vt 0.9422 0.8226
vt 0.9221 0.6816
vt 0.9246 0.4536
vt 0.9478 0.3087
vt 0.9515 0.3030
vt 0.9519 0.5615
vt 0.9519 0.5755
vt 0.9515 0.8324
vt 0.9450 0.8324
vt 0.9227 0.6829
vt 0.9227 0.4481
vt 0.9450 0.3030
vt 0.5560 0.7693
vt 0.5560 0.9885
vt 0.4048 0.9885
vt 0.4048 0.7693
vt 0.1700 0.9885
vt 0.1700 0.7693
vt 0.0233 0.9885
vt 0.0233 0.7693
vt 0.8684 0.6384
vt 0.8689 0.8953
vt 0.8280 0.8954
vt 0.8232 0.5933
vt 0.8226 0.5918
vt 0.8232 0.8502
vt 0.7781 0.8955
vt 0.7817 0.5921
vt 0.6572 0.9315
vt 0.6572 0.9174
vt 0.6967 0.9171
vt 0.6967 0.9315
vt 0.6542 0.8717
vt 0.6584 0.8874
vt 0.6208 0.9004
vt 0.6070 0.8887
vt 0.7368 0.9171
vt 0.7368 0.9315
vt 0.6848 0.8243
vt 0.7186 0.8474
vt 0.6862 0.8711
vt 0.6481 0.8608
vt 0.6562 0.8468
vt 0.7187 0.9031
vt 0.6801 0.9166
vt 0.6937 0.8717
vt 0.6831 0.9602
vt 0.6468 0.9602
vt 0.6468 0.9462
vt 0.6831 0.9462
vt 0.6070 0.9608
vt 0.6210 0.9608
vt 0.6210 0.9789
vt 0.6070 0.9789
vt 0.6070 0.9602
vt 0.6070 0.9462
vt 0.6070 0.8319
vt 0.6234 0.8243
vt 0.6070 0.9315
vt 0.6070 0.9174
vn 0.0000 0.0000 1.0000
vn 0.0000 -1.0000 0.0000
vn 1.0000 0.0096 0.0000
vn 0.0000 0.0000 -1.0000
vn -1.0000 0.0000 0.0000
vn 0.0000 1.0000 0.0000
vn 1.0000 -0.0000 0.0000
vn -1.0000 0.0025 0.0000
vn 0.0000 0.9891 0.1472
vn 0.0000 0.9884 -0.1517
vn 0.0050 1.0000 -0.0008
vn 0.0050 1.0000 0.0008
vn 0.3393 0.9407 0.0000
vn 0.9472 0.3207 0.0000
vn -0.0072 -0.0018 1.0000
vn -0.9571 -0.2899 0.0000
vn -0.8663 -0.4994 0.0000
vn -0.0118 -0.9999 0.0000
usemtl Material.004
s off
f 1/1/1 5/2/1 16/3/1 15/4/1
f 6/5/2 2/6/2 4/7/2 8/8/2
f 4/9/1 9/10/1 10/11/1 8/12/1
f 2/13/3 11/14/3 22/15/3 23/16/3 9/10/3 4/9/3
f 6/17/4 12/18/4 11/19/4 2/20/4
f 8/21/5 10/22/5 12/23/5 6/24/5
f 3/25/6 7/26/6 10/27/6 9/28/6
f 5/29/6 1/30/6 11/31/6 12/32/6
f 7/33/6 5/34/6 12/35/6 10/36/6
f 7/37/4 3/38/4 13/39/4 14/40/4
f 5/41/7 7/42/7 14/43/7 17/44/7 19/45/7 16/46/7
f 3/47/8 24/48/8 21/49/8 1/50/8 15/51/8 18/52/8 20/53/8 13/54/8
f 15/55/9 16/56/9 19/57/9 18/58/9
f 18/58/6 19/57/6 17/59/6 20/60/6
f 20/60/10 17/59/10 14/61/10 13/62/10
f 1/63/11 21/64/11 22/65/11 11/66/11
f 24/67/12 3/68/12 9/69/12 23/70/12
f 29/71/13 30/72/13 28/73/13 27/74/13
f 29/75/4 34/76/4 36/77/4 31/78/4
f 23/79/14 22/80/14 27/74/14 28/73/14
f 24/81/15 23/82/15 28/83/15 30/84/15 33/85/15
f 22/86/4 21/87/4 34/76/4 29/75/4 27/88/4
f 24/89/16 33/90/16 34/91/16 21/92/16
f 36/93/17 35/94/17 32/95/17 31/96/17
f 34/91/18 33/90/18 35/97/18 36/98/18
f 33/85/1 30/84/1 32/99/1 35/100/1
f 30/72/6 29/71/6 31/101/6 32/102/6
l 26 24
l 25 21
