# Blender v2.78 (sub 0) OBJ File: 'KitchenHood.blend'
# www.blender.org
mtllib KitchenHood.mtl
o Cube
v 1.759930 0.584018 0.478466
v 1.759930 0.403429 0.478466
v 1.759930 0.584018 1.678466
v 1.759930 0.403429 1.678466
v -0.240070 0.584018 0.478466
v -0.240070 0.403429 0.478466
v -0.240070 0.584018 1.678466
v -0.240070 0.403429 1.678466
v 1.075004 1.147060 1.672284
v 0.444857 1.147060 1.672284
v 1.075004 1.147060 1.294196
v 0.444857 1.147060 1.294196
v 1.075004 2.122648 1.672284
v 0.444857 2.122648 1.672284
v 1.075004 2.122648 1.294196
v 0.444857 2.122648 1.294196
vt 0.5306 0.3337
vt 0.5306 0.4159
vt 0.9686 0.4159
vt 0.9686 0.3337
vt 0.5134 0.3372
vt 0.5132 0.4203
vt 0.0247 0.4192
vt 0.0249 0.3361
vt 0.9665 0.3380
vt 0.9665 0.4196
vt 0.5304 0.4196
vt 0.5304 0.3380
vt 0.5184 0.3367
vt 0.5177 0.4114
vt 0.0200 0.4122
vt 0.0206 0.3375
vt 0.6701 0.7173
vt 0.5326 0.7173
vt 0.4593 0.9599
vt 0.4593 0.7651
vt 0.1403 0.7651
vt 0.1403 0.9599
vt 0.0199 0.4133
vt 0.5177 0.4118
vt 0.3482 0.7228
vt 0.1914 0.7233
vt 0.0266 0.4195
vt 0.5151 0.4208
vt 0.3471 0.7230
vt 0.1932 0.7226
vt 0.5329 0.7156
vt 0.6709 0.7156
vt 0.1395 0.9599
vt 0.1395 0.7651
vt 0.0392 0.7651
vt 0.0392 0.9599
vt 0.1405 0.7651
vt 0.1405 0.9599
vt 0.4595 0.9599
vt 0.4595 0.7651
vt 0.7898 0.7872
vt 0.7898 0.9360
vt 0.4816 0.9360
vt 0.4816 0.7872
vt 0.4841 0.9365
vt 0.4828 0.7877
vt 0.7909 0.7873
vt 0.7923 0.9361
vn -1.0000 0.0000 0.0000
vn 0.0000 0.0000 1.0000
vn 1.0000 0.0000 0.0000
vn 0.0000 0.0000 -1.0000
vn 0.6350 0.7725 0.0000
vn 0.0000 0.8230 -0.5681
vn 0.0000 0.0110 0.9999
vn -0.6350 0.7725 0.0000
vn 0.0000 1.0000 0.0000
usemtl Material
s off
f 8/1/1 7/2/1 5/3/1 6/4/1
f 4/5/2 3/6/2 7/7/2 8/8/2
f 2/9/3 1/10/3 3/11/3 4/12/3
f 6/13/4 5/14/4 1/15/4 2/16/4
f 3/11/5 1/10/5 11/17/5 9/18/5
f 11/19/4 12/20/4 16/21/4 15/22/4
f 1/23/6 5/24/6 12/25/6 11/26/6
f 7/27/7 3/28/7 9/29/7 10/30/7
f 5/3/8 7/2/8 10/31/8 12/32/8
f 15/33/9 16/34/9 14/35/9 13/36/9
f 10/37/2 9/38/2 13/39/2 14/40/2
f 12/41/1 10/42/1 14/43/1 16/44/1
f 9/45/3 11/46/3 15/47/3 13/48/3
